<?xml version="1.0" encoding="UTF-8"?>
<svg id="Livello_1" xmlns="http://www.w3.org/2000/svg" version="1.1" viewBox="0 0 595.28 841.89">
  <!-- Generator: Adobe Illustrator 29.8.1, SVG Export Plug-In . SVG Version: 2.1.1 Build 2)  -->
  <defs>
    <style>
      .st0 {
        fill: #077949;
      }

      .st1 {
        fill: #e7353a;
      }
    </style>
  </defs>
  <g>
    <path class="st1" d="M171.84,433.15h-10.83l-.23-.24v-22.82l-11.89,12.73-11.89-12.73v22.82l-.23.24h-10.83l-.23-.24v-39.99l.23-.24h10.94l12,13.69,12-13.69h10.94l.23.24v39.99l-.23.24ZM127.71,399.89c.31-.04.47-.36.47-.96v-3.48l.23-.24h8.94c-.49-.8-.96-1.2-1.41-1.2h-8.24c-.47,0-.71.24-.71.72v4.8c.08.24.31.36.71.36ZM150.89,407.81l11.06-12.61h8.83v-.48c0-.48-.23-.72-.71-.72h-8.24c-.45,0-1.35.92-2.71,2.76-6.04,6.71-9.06,10.27-9.06,10.69l.47.36h.35ZM162.78,431.83l.47-.12v-18.13l-.24-.24h-.47l-.35.36v18.01l.59.12Z"/>
    <path class="st1" d="M215.4,433.15h-40.13l-.23-.24v-39.39l.23-.24h40.13l.23.24v9.01l-.23.24h-27.89v5.04h15.89l.23.24v9.13l-.23.24h-15.89v6.24h27.89l.23.24v9.01l-.23.24ZM177.16,399.89l.23-.24v-3.72l.23-.24h35.89l.82.12v-.84l-.35-.36h-37.54l-.12.6v4.08l.12.6h.71ZM202.22,410.46v-.84l-.35-.36h-14.12l-.23.24v.6l.23.24h13.3l1.18.12ZM214.34,426.31v-.84l-.35-.36h-26.24l-.23.24v.72l.59.12h25.66l.59.12Z"/>
    <path class="st1" d="M263.08,433.15h-12.59l-15.06-13.81h-5.53v13.21l-.23.24h-10.83l-.23-.24v-39.51l.23-.24h36.13c1.75,0,3.35,1.28,4.83,3.84l.35,1.56v15.73c0,1.84-1.26,3.52-3.77,5.04-.84.24-1.67.36-2.47.36h-1.77l11.18,10.57v3l-.24.24ZM258.38,397.01v-.24c-.86-1.76-2.2-2.64-4-2.64h-34.13l-.35.36v.48l.24.24h32.83c2.49,0,4.3.6,5.41,1.8ZM248.61,411.06c.78,0,1.18-.4,1.18-1.2v-6.36c0-.62-.2-1.02-.59-1.2h-19.3v8.77h18.71ZM248.61,413.58c.78,0,1.18-.44,1.18-1.32l-.82.12h-18.48l-.59.12v.96l.59.12h18.12ZM261.91,431.83c.39-.12.59-.4.59-.84-.59-.76-4.28-4.2-11.06-10.33h-1.53l12,11.17Z"/>
    <path class="st1" d="M309.35,433.15h-11.06c-.26,0-1.2-2.84-2.82-8.53l-2.71-8.17c-.37-.48-1.08-.72-2.12-.72h-13.06v17.17l-.23.24h-10.83l-.23-.24v-39.99l.23-.24h10.83l.23.24v14.17h11.06c.92,0,1.82-1,2.71-3l6.83-11.41h11.06c-.28.82-2.9,5.38-7.89,13.69l-1.41,2.52c1.67,1.12,2.96,3.44,3.88,6.96l5.65,17.17-.12.12ZM268.28,399.89c.31-.04.47-.36.47-.96v-3.48l.23-.24h6.24c.59,0,.9-.12.94-.36v-.6l-.23-.24h-8l-.35.36v5.16c.08.24.31.36.71.36ZM288.76,409.62c.67,0,1.33-.64,2-1.92h-.12c-.53.56-1.59.84-3.18.84h-9.65l-.23.24v.6l.23.24h10.94ZM305.82,395.21c.43,0,.71-.16.82-.48v-.36l-.35-.36h-7.3c-.16.04-.31.24-.47.6,0,.4.35.6,1.06.6h6.24Z"/>
    <path class="st1" d="M369.15,433.15h-12.47c-.59-.68-2.08-3.28-4.47-7.81h-22.71c-2.82,5.14-4.31,7.75-4.47,7.81h-12.36l-.23-.24c15.14-26.66,22.75-40.03,22.83-40.11h11.06c.45.42,3.9,6.47,10.36,18.13l12.59,22.1-.12.12ZM316.31,430.63c.31,0,1.18-1.36,2.59-4.08l17.89-31.34h8.12c.14,0,.25-.2.35-.6l-.35-.48h-8.94l-20.24,35.91v.24c0,.18.19.3.59.36ZM347.5,418.38c.12,0,.23-.16.35-.48-.04-.4-.28-.6-.71-.6h-12.83c-.24.08-.35.32-.35.72l.35.36h13.18ZM346.67,415.86v-.12l-5.77-10.33h-.12l-5.88,10.45h11.77Z"/>
    <path class="st1" d="M382.41,433.15h-10.94l-.23-.24v-30.74h-14.95l-.23-.24v-9.01l.23-.24h41.31l.23.24v9.01l-.23.24h-14.95v30.74l-.23.24ZM358.05,398.93l.35-.12v-3.36l.24-.24h36.95c.59,0,.9-.12.94-.36v-.48l-.35-.36h-38.84v4.56c.08.24.31.36.71.36ZM373.7,431.83v-26.9l-.24-.24h-.59l-.23.24v26.18c0,.48.23.72.71.72h.35Z"/>
    <path class="st1" d="M461.78,433.15h-12.48c-.59-.68-2.08-3.28-4.47-7.81h-22.71c-2.82,5.14-4.32,7.75-4.47,7.81h-12.36l-.23-.24c15.14-26.66,22.75-40.03,22.83-40.11h11.06c.45.42,3.9,6.47,10.36,18.13l12.59,22.1-.12.12ZM408.93,430.63c.31,0,1.18-1.36,2.59-4.08l17.89-31.34h8.12c.14,0,.25-.2.35-.6l-.35-.48h-8.94l-20.24,35.91v.24c0,.18.2.3.59.36ZM440.12,418.38c.12,0,.23-.16.35-.48-.04-.4-.28-.6-.71-.6h-12.83c-.23.08-.35.32-.35.72l.35.36h13.18ZM439.3,415.86v-.12l-5.77-10.33h-.12l-5.88,10.45h11.77Z"/>
    <path class="st1" d="M501.06,433.15h-32.6c-1.65,0-3.18-1.12-4.59-3.36-.47-.72-.71-2.08-.71-4.08v-27.86c0-1.8,1.26-3.4,3.77-4.8l1.18-.24h33.19c1.73,0,3.26,1.2,4.59,3.6l.35,1.44v4.2l-.24.24h-33.07v20.53h22.83v-5.64h-4.12c-1.43,0-2.37-1.64-2.82-4.92-.31-.96-.47-1.72-.47-2.28,0-1.5.94-2.34,2.82-2.52h8.12c3.57,0,5.81,1.48,6.71,4.44l.24.96v15.01c0,.92-.55,2.08-1.65,3.48-1.26,1.12-2.43,1.72-3.53,1.8ZM465.17,399.41c.16,0,.31-.68.47-2.04.63-1.04,1.49-1.76,2.59-2.16,0-.5-.12-.78-.35-.84-1.16,0-2.22.84-3.18,2.52-.23.52-.35,1.28-.35,2.28l.23.24h.59ZM503.3,395.21c-.71-.72-1.65-1.08-2.82-1.08h-31.19l-.35.36v.48l.23.24h34.13ZM495.41,425.35c.18,0,.29-.2.35-.6-.12-.32-.23-.48-.35-.48h-22.12l-.35.36v.36l.35.36h22.12Z"/>
    <path class="st1" d="M553.5,433.15h-12.59l-15.06-13.81h-5.53v13.21l-.23.24h-10.83l-.24-.24v-39.51l.24-.24h36.13c1.74,0,3.35,1.28,4.82,3.84l.35,1.56v15.73c0,1.84-1.26,3.52-3.77,5.04-.84.24-1.67.36-2.47.36h-1.77l11.18,10.57v3l-.23.24ZM548.79,397.01v-.24c-.86-1.76-2.2-2.64-4-2.64h-34.13l-.35.36v.48l.23.24h32.83c2.49,0,4.3.6,5.41,1.8ZM539.03,411.06c.78,0,1.18-.4,1.18-1.2v-6.36c0-.62-.2-1.02-.59-1.2h-19.3v8.77h18.71ZM539.03,413.58c.78,0,1.18-.44,1.18-1.32l-.82.12h-18.48l-.59.12v.96l.59.12h18.12ZM552.33,431.83c.39-.12.59-.4.59-.84-.59-.76-4.28-4.2-11.06-10.33h-1.53l12,11.17Z"/>
    <path class="st1" d="M567.46,433.15h-10.71l-.24-.24v-39.99l.24-.24h10.71l.23.24v39.99l-.23.24ZM558.28,399.89l.59-.12v-4.32l.23-.24h7.3v-.48c0-.48-.23-.72-.71-.72h-7.18c-.47,0-.71.24-.71.72v4.8l.35.36h.12Z"/>
  </g>
  <rect class="st0" x="125.99" y="437.98" width="443" height="4.86"/>
  <polygon class="st0" points="68.34 416.77 78.49 416.77 82.44 438.77 64.2 438.77 68.34 416.77"/>
  <path class="st0" d="M76,413.08h2.92s1.7.11,2.02,1.27,5.2,24.42,5.2,24.42c0,0,.64,3.34-2.5,3.34-3.13,0-6.21,0-6.21,0h-8.23s-3.08,0-6.21,0-2.5-3.34-2.5-3.34c0,0,4.88-23.25,5.2-24.42s2.02-1.27,2.02-1.27h8.28ZM70.64,398.95h-15.56c-.64,0-1.22.48-1.22.48,0,0-7.06,5.95-7.86,6.8s-1.17,1.31-1.17,1.91v2.71h15.82l-6.58,32.16s-1.6,6.2,3.29,6.2h19.49s7.52,0,12.41,0c4.89,0,3.29-6.2,3.29-6.2l-6.58-32.16h15.82s0-2.1,0-2.71-.37-1.06-1.17-1.91-7.86-6.8-7.86-6.8c0,0-.58-.48-1.22-.48s-15.56,0-15.56,0h-5.36Z"/>
  <g>
    <g>
      <path class="st0" d="M56.45,414.14h-14.12s-1.54,0-2.18.9-1.7,1.7-1.7,2.5v2.81h17.04l.96-6.21Z"/>
      <path class="st0" d="M54.7,423.64h-21.13s-1.54,0-2.18.9-1.7,1.7-1.7,2.5v2.81h24.05l.96-6.21Z"/>
      <path class="st0" d="M50.87,442.97h-20.71s-1.9-.04-2.65-.85c-.85-.9-1.22-1.75-1.22-2.55v-3.03c0-.53.42-1.41,1.17-2.23,1.06-1.17,2.71-1.17,2.71-1.17h22.51l-1.81,9.82Z"/>
    </g>
    <g>
      <path class="st0" d="M90.19,414.16h14.12s1.54,0,2.18.9,1.7,1.7,1.7,2.5v2.81h-17.04s-.96-6.21-.96-6.21Z"/>
      <path class="st0" d="M91.94,423.67h21.13s1.54,0,2.18.9,1.7,1.7,1.7,2.5v2.81h-24.05s-.96-6.21-.96-6.21Z"/>
      <path class="st0" d="M95.76,442.99h20.71s1.9-.04,2.65-.85c.85-.9,1.22-1.75,1.22-2.55v-3.03c0-.53-.42-1.41-1.17-2.23-1.06-1.17-2.71-1.17-2.71-1.17h-22.51s1.81,9.82,1.81,9.82Z"/>
    </g>
  </g>
</svg>